<?xml version="1.0" encoding="UTF-8" standalone="no"?>
<!-- Created with Inkscape (http://www.inkscape.org/) -->

<svg
   xmlns:dc="http://purl.org/dc/elements/1.1/"
   xmlns:cc="http://creativecommons.org/ns#"
   xmlns:rdf="http://www.w3.org/1999/02/22-rdf-syntax-ns#"
   xmlns:svg="http://www.w3.org/2000/svg"
   xmlns="http://www.w3.org/2000/svg"
   xmlns:sodipodi="http://sodipodi.sourceforge.net/DTD/sodipodi-0.dtd"
   xmlns:inkscape="http://www.inkscape.org/namespaces/inkscape"
   width="150"
   height="150"
   viewBox="0 0 150 150"
   id="svg2"
   version="1.1"
   inkscape:version="0.91 r13725"
   sodipodi:docname="udacity.svg">
  <defs
     id="defs4" />
  <sodipodi:namedview
     id="base"
     pagecolor="#ffffff"
     bordercolor="#666666"
     borderopacity="1.0"
     inkscape:pageopacity="0.0"
     inkscape:pageshadow="2"
     inkscape:zoom="0.35"
     inkscape:cx="375"
     inkscape:cy="520"
     inkscape:document-units="px"
     inkscape:current-layer="layer1"
     showgrid="false"
     units="px"
     inkscape:window-width="704"
     inkscape:window-height="821"
     inkscape:window-x="720"
     inkscape:window-y="0"
     inkscape:window-maximized="0" />
  <metadata
     id="metadata7">
    <rdf:RDF>
      <cc:Work
         rdf:about="">
        <dc:format>image/svg+xml</dc:format>
        <dc:type
           rdf:resource="http://purl.org/dc/dcmitype/StillImage" />
        <dc:title></dc:title>
      </cc:Work>
    </rdf:RDF>
  </metadata>
  <g
     inkscape:label="Layer 1"
     inkscape:groupmode="layer"
     id="layer1"
     transform="translate(0,-902.36216)">
    <g
       transform="translate(0,-4e-5)"
       id="layer1-5"
       inkscape:label="Layer 1">
      <path
         style="fill:#02b3e4;fill-rule:evenodd"
         inkscape:connector-curvature="0"
         id="mark"
         d="m 140.32255,902.84606 -43.548361,22.74191 0,0 0,72.09683 c 0,2.9032 0,6.2903 -0.96772,9.1935 -0.48389,2.9033 -1.45163,5.8065 -2.41937,8.2259 -0.48386,0.4838 -0.48386,1.4516 -0.96774,1.9354 -1.451639,0 -12.096799,-3.3871 -16.935489,-6.7742 -1.93548,-1.4516 -3.87096,-2.9032 -5.80646,-4.8387 -1.93549,-1.9354 -3.38711,-3.8709 -4.83869,-5.80642 -1.45165,-1.93548 -2.90323,-4.35484 -3.871,-6.77419 -0.96772,-2.41936 -1.93545,-4.83872 -2.41936,-7.74195 -0.48385,-2.41935 -0.48385,-5.32258 -0.48385,-7.74194 l 0,-69.19356 -9.67746,-5.80645 L 0,930.91054 0,997.20092 c 0,30.48388 24.67742,55.16128 54.67743,55.16128 10.16129,0 19.35482,-2.4193 27.58064,-7.2581 l 40.64515,-23.2257 C 138.87097,1013.6525 150,996.71705 150,977.84608 l 0,-69.19356 -9.67745,-5.80646 0,0 z M 86.61289,1029.1364 c -4.35482,4.3549 -7.74192,6.7742 -12.58064,9.1936 -2.90323,0.9677 -6.29033,2.4193 -9.19353,3.3871 -2.90323,0.4838 -5.80645,0.9677 -8.70972,0.9677 -2.9032,0 -7.74195,-0.4839 -10.64515,-0.9677 -2.90323,-0.4839 -5.80646,-1.4516 -8.22581,-2.4194 -2.41935,-0.9677 -5.32257,-2.4193 -7.74192,-4.3548 -6.29032,-4.3549 -9.19354,-8.2258 -12.09677,-12.0968 -1.45163,-2.4193 -2.90323,-4.8387 -4.35486,-7.7419 -0.96771,-2.9033 -1.93548,-5.3226 -2.41933,-8.2259 -0.9677604,-3.387 -0.9677604,-6.7741 -0.9677604,-9.67738 l 0,-60.4839 38.7096504,-22.74195 0,63.38713 0,0 c 0,24.1936 17.90325,44.0323 40.64521,48.871 -0.96776,0.9677 -1.45163,1.9355 -2.41937,2.9032 l 0,0 z m 53.22581,-43.54839 c -0.48387,2.41936 -1.4516,4.83872 -2.41935,7.25808 -0.96774,2.41935 -2.90321,5.80644 -4.83871,8.22581 -2.90322,3.3871 -5.80645,5.8064 -13.06449,10.1613 -6.29035,3.3871 -11.61291,4.3548 -15.00001,5.3226 2.41934,-5.8065 2.41934,-12.0968 2.41934,-18.871 l -0.48387,-66.29038 33.87094,-17.90322 0,64.35488 c 0,2.41936 0,5.32259 -0.48385,7.74193 l 0,0 z" />
    </g>
  </g>
</svg>
